<?xml version="1.0" ?><svg style="enable-background:new 0 0 48 48;" version="1.1" viewBox="0 0 48 48" xml:space="preserve" xmlns="http://www.w3.org/2000/svg" xmlns:xlink="http://www.w3.org/1999/xlink"><g id="Icons"><g><path d="M34.95441,10.52719H13.04438c-1.38995,0-2.51996,1.13-2.51996,2.51996v21.91003    c0,1.39001,1.13,2.52002,2.51996,2.52002h21.91003c1.39001,0,2.52002-1.13,2.52002-2.52002V13.04714    C37.47443,11.65719,36.34443,10.52719,34.95441,10.52719z M19.41444,31.33718c-0.95001-0.01001-1.91003-0.01001-2.87006,0    c-0.17999,0-0.22998-0.04999-0.22998-0.23999V20.95718c0-0.19,0.06-0.23999,0.23999-0.23999    c0.95001,0.01001,1.91003,0.01001,2.86005,0c0.18994,0,0.23999,0.06,0.22998,0.23999v5.08002c0,1.69,0,3.37994,0.01001,5.06995    C19.65443,31.2872,19.59443,31.33718,19.41444,31.33718z M17.98438,19.35714c-1.06,0.01001-1.92999-0.87994-1.92999-1.92999    c0.01001-1.01001,0.78003-1.91998,1.92004-1.92999c1.07996-0.01001,1.94,0.81,1.94,1.92999    C19.91444,18.52719,19.07441,19.34719,17.98438,19.35714z M31.64442,31.33718h-2.81c-0.23004,0-0.23999-0.01001-0.23999-0.25    v-5.14001c0-0.47998-0.01001-0.96002-0.15002-1.42999c-0.21997-0.72998-0.69-1.08002-1.46002-1.10004    c-0.53998-0.00995-1.04999,0.09003-1.42999,0.51001c-0.31,0.33002-0.44,0.73004-0.5,1.17004    c-0.03998,0.38995-0.07001,0.78998-0.07001,1.19c-0.00995,1.60999-0.00995,3.21997,0,4.81995    c0,0.18005-0.04999,0.23004-0.21997,0.23004c-0.96002-0.01001-1.92999-0.01001-2.89001,0    c-0.16998,0-0.22998-0.04999-0.22998-0.23004c0.01001-3.37994,0.01001-6.76996,0-10.15997    c0-0.17999,0.07001-0.22998,0.22998-0.22998c0.91998,0.01001,1.84003,0.01001,2.76001,0    c0.17999,0,0.23999,0.07001,0.22998,0.23999c-0.01001,0.37,0,0.75,0,1.12c0.52002-0.77002,1.22003-1.26001,2.10004-1.47998    c1.01996-0.25,2.02997-0.17004,2.98999,0.25c0.92999,0.39996,1.42999,1.15997,1.69,2.09998    c0.17999,0.60999,0.26001,1.23999,0.27002,1.88c0.00995,2.07001,0.01996,4.14001,0.02997,6.21997    C31.94441,31.33718,31.94441,31.33718,31.64442,31.33718z" style="fill:#0097D3;"/><path d="    M24.86241,22.07709c0-0.37413-0.00633-0.74842,0.00284-1.12232c0.00418-0.17041-0.05044-0.23443-0.22721-0.23316    c-0.91956,0.00657-1.83921,0.00618-2.75877,0.00016c-0.16858-0.0011-0.23149,0.04476-0.23125,0.22461    c0.00472,3.388,0.00463,6.77602,0.00013,10.16402c-0.00023,0.17599,0.05597,0.22882,0.22816,0.2277    c0.96192-0.00626,1.92392-0.00677,2.88582,0.00042c0.17502,0.00131,0.22412-0.05272,0.22344-0.22696    c-0.00626-1.60928-0.0083-3.21862-0.0004-4.82788c0.00196-0.3974,0.02636-0.79677,0.07344-1.1913    c0.0514-0.43074,0.18933-0.83798,0.49199-1.16651c0.38857-0.42177,0.89336-0.51685,1.4383-0.50664    c0.76062,0.01426,1.23459,0.3686,1.45193,1.0967c0.14006,0.46923,0.15128,0.95168,0.15153,1.43514    c0.00089,1.71215,0.00015,3.42431,0.00065,5.13647c0.00007,0.23921,0.00777,0.24711,0.24296,0.24729    c0.93776,0.00072,1.8755,0.00046,2.81326,0.00026c0.2923-0.00006,0.29384-0.0005,0.29265-0.28864    c-0.00851-2.07445-0.01402-4.14892-0.02889-6.22333c-0.00456-0.63551-0.08986-1.26384-0.26389-1.87646    c-0.26643-0.93789-0.76835-1.70284-1.69026-2.10235c-0.96453-0.41797-1.97464-0.49359-2.99585-0.24308    C26.08163,20.81743,25.38494,21.31209,24.86241,22.07709z M19.64494,26.03965c0-1.69379-0.003-3.38759,0.0043-5.08134    c0.00079-0.18384-0.04828-0.23885-0.23202-0.23734c-0.95572,0.00784-1.91156,0.00733-2.86729,0.00031    c-0.17909-0.00131-0.23944,0.04884-0.23916,0.23559c0.00516,3.38152,0.00513,6.76305,0.00005,10.14457    c-0.00027,0.18502,0.05664,0.23845,0.23768,0.23708c0.95572-0.00726,1.91157-0.00737,2.86729,0.00009    c0.18121,0.00141,0.23445-0.04946,0.23361-0.23576C19.64179,29.41514,19.64494,27.72739,19.64494,26.03965z M16.05799,17.42596    c0.00018,1.05616,0.86514,1.94054,1.92286,1.92994c1.09141-0.01094,1.93827-0.83299,1.9363-1.93208    c-0.002-1.11825-0.86416-1.9328-1.93835-1.92656C16.83331,15.50391,16.06001,16.42073,16.05799,17.42596z" style="fill:none;stroke:#303030;stroke-width:0.7;stroke-linecap:round;stroke-linejoin:round;stroke-miterlimit:10;"/><path d="    M34.95235,37.47676h-21.9047c-1.3942,0-2.52442-1.13022-2.52442-2.52441v-21.9047c0-1.3942,1.13022-2.52442,2.52442-2.52442    h21.9047c1.3942,0,2.52441,1.13022,2.52441,2.52442v21.9047C37.47676,36.34655,36.34655,37.47676,34.95235,37.47676z" style="fill:none;stroke:#303030;stroke-width:0.7;stroke-linecap:round;stroke-linejoin:round;stroke-miterlimit:10;"/><line style="fill:none;stroke:#303030;stroke-width:0.7;stroke-linecap:round;stroke-linejoin:round;stroke-miterlimit:10;" x1="16.63624" x2="23.28809" y1="12.70723" y2="12.70723"/><line style="fill:none;stroke:#303030;stroke-width:0.7;stroke-linecap:round;stroke-linejoin:round;stroke-miterlimit:10;" x1="25.99663" x2="28.14752" y1="12.70723" y2="12.70723"/></g></g></svg>