<?xml version="1.0" ?><svg style="enable-background:new 0 0 48 48;" version="1.1" viewBox="0 0 48 48" xml:space="preserve" xmlns="http://www.w3.org/2000/svg" xmlns:xlink="http://www.w3.org/1999/xlink"><g id="Icons"><g><path d="M34.95397,10.52393H13.04399c-1.39001,0-2.52002,1.13-2.52002,2.52002v21.90997    c0,1.39001,1.13,2.52002,2.52002,2.52002h21.90997c1.39001,0,2.52002-1.13,2.52002-2.52002V13.04395    C37.47399,11.65394,36.34398,10.52393,34.95397,10.52393z M32.174,19.81397c0,0-0.02002,1.88-0.29999,3.06    c-0.28003,1.16998-1.22003,4.44-4.02002,6.73999c-2.81,2.29999-6.22003,2.79999-8.15997,2.66998    c-1.94-0.13-4.31006-0.87-5.85004-1.82001c0,0,3.51001,0.38,6.10004-1.76001c0,0-2.61005,0.12006-3.85004-2.88995    c0,0,0.89001,0.15997,1.85004-0.11005c0,0-3.30005-0.59998-3.34003-4.14996c0,0,1.09003,0.52997,1.89001,0.47998    c0,0-3.15002-2.40997-1.23004-5.51996c0,0,3.15002,4.17999,8.62,4.33997c-1.31995-3.66998,4.63-7.15003,7.09003-3.81    c0,0,0.95001-0.02997,2.67999-0.96997c0,0-0.40997,1.31995-1.73999,2.19995c0,0,1-0.00995,2.22998-0.53998    C34.054,17.87397,33.304,19.02393,32.174,19.81397z" style="fill:#4AA0EC;"/><path d="    M23.88775,20.85026c-1.32288-3.66498,4.63122-7.14932,7.08449-3.8044c0,0,0.95097-0.03413,2.68647-0.96863    c0,0-0.41385,1.32145-1.74885,2.19597c0,0,1.0146-0.00657,2.2428-0.55392c0,0-0.7743,1.2549-1.9758,2.09595    c0,0-0.0267,1.88235-0.30705,3.05715s-1.21485,4.44555-4.01835,6.74174s-6.22109,2.8035-8.15684,2.67    s-4.31205-0.86775-5.8473-1.8156c0,0,3.51105,0.3738,6.10094-1.7622c0,0-2.6166,0.12015-3.85815-2.89695    c0,0,0.89445,0.1602,1.85565-0.1068c0,0-3.29745-0.60075-3.3375-4.15185c0,0,1.08135,0.534,1.88235,0.4806    c0,0-3.06164-2.33515-1.30714-5.3813c0.03531-0.06131,0.12664-0.0709,0.17166-0.01633    C15.91245,17.30918,18.95966,20.71237,23.88775,20.85026z" style="fill:none;stroke:#303030;stroke-width:0.7;stroke-linecap:round;stroke-linejoin:round;stroke-miterlimit:10;"/><path d="    M34.95235,37.47676h-21.9047c-1.3942,0-2.52442-1.13022-2.52442-2.52441v-21.9047c0-1.3942,1.13022-2.52442,2.52442-2.52442    h21.9047c1.3942,0,2.52442,1.13022,2.52442,2.52442v21.9047C37.47676,36.34655,36.34655,37.47676,34.95235,37.47676z" style="fill:none;stroke:#303030;stroke-width:0.7;stroke-linecap:round;stroke-linejoin:round;stroke-miterlimit:10;"/><line style="fill:none;stroke:#303030;stroke-width:0.7;stroke-linecap:round;stroke-linejoin:round;stroke-miterlimit:10;" x1="18.13809" x2="24.86522" y1="12.70107" y2="12.70107"/><line style="fill:none;stroke:#303030;stroke-width:0.7;stroke-linecap:round;stroke-linejoin:round;stroke-miterlimit:10;" x1="26.92208" x2="28.74162" y1="12.70107" y2="12.70107"/></g></g></svg>